<svg class="grid-cta-svg" viewBox="0 0 1280 2276" fill="none" xmlns="http://www.w3.org/2000/svg">
                    <line y1="207.5" x2="1280" y2="207.5" stroke="white" stroke-opacity="0.25"/>
                    <line y1="415.5" x2="1280" y2="415.5" stroke="white" stroke-opacity="0.25"/>
                    <line y1="623.5" x2="1280" y2="623.5" stroke="white" stroke-opacity="0.25"/>
                    <line y1="831.5" x2="1280" y2="831.5" stroke="white" stroke-opacity="0.25"/>
                    <line y1="1039.5" x2="1280" y2="1039.5" stroke="white" stroke-opacity="0.25"/>
                    <line y1="1247.5" x2="1280" y2="1247.5" stroke="white" stroke-opacity="0.25"/>
                    <line y1="1455.5" x2="1280" y2="1455.5" stroke="white" stroke-opacity="0.25"/>
                    <line y1="1663.5" x2="1280" y2="1663.5" stroke="white" stroke-opacity="0.25"/>
                    <line y1="1871.5" x2="1280" y2="1871.5" stroke="white" stroke-opacity="0.25"/>
                    <line y1="2079.5" x2="1280" y2="2079.5" stroke="white" stroke-opacity="0.25"/>
                    <line x1="16.5" y1="2.18557e-08" x2="16.4999" y2="2276" stroke="white" stroke-opacity="0.25"/>
                    <line x1="224.5" y1="2.18557e-08" x2="224.5" y2="2276" stroke="white" stroke-opacity="0.25"/>
                    <line x1="432.5" y1="2.18557e-08" x2="432.5" y2="2276" stroke="white" stroke-opacity="0.25"/>
                    <line x1="640.5" y1="2.18557e-08" x2="640.5" y2="2276" stroke="white" stroke-opacity="0.25"/>
                    <line x1="848.5" y1="2.18557e-08" x2="848.5" y2="2276" stroke="white" stroke-opacity="0.25"/>
                    <line x1="1056.5" y1="2.18557e-08" x2="1056.5" y2="2276" stroke="white" stroke-opacity="0.25"/>
                    <line x1="1264.5" y1="2.18557e-08" x2="1264.5" y2="2276" stroke="white" stroke-opacity="0.25"/>
                    <path class="wiggle-arrow" d="M712.247 358.375L712.247 288.063C712.247 285.669 712.719 283.298 713.635 281.087C714.551 278.875 715.894 276.865 717.587 275.173C719.279 273.48 721.289 272.137 723.501 271.221C725.712 270.305 728.083 269.833 730.477 269.833C732.87 269.833 735.241 270.305 737.453 271.221C739.664 272.137 741.674 273.48 743.367 275.173C745.059 276.865 746.402 278.875 747.318 281.087C748.234 283.298 748.706 285.669 748.706 288.063L748.706 334.938C748.706 339.772 750.626 344.409 754.045 347.828C757.464 351.246 762.1 353.167 766.935 353.167C771.77 353.167 776.406 351.246 779.825 347.828C783.243 344.409 785.164 339.772 785.164 334.938L785.164 272.438M712.247 358.375L694.018 340.146M712.247 358.375L730.477 340.146" stroke="white" stroke-width="7.78632" stroke-linecap="round" stroke-linejoin="round"/>
                    <path class="wiggle-arrow" d="M712.247 151.375L712.247 81.0626C712.247 78.6687 712.719 76.2983 713.635 74.0866C714.551 71.875 715.894 69.8654 717.587 68.1727C719.279 66.4799 721.289 65.1372 723.501 64.2211C725.712 63.305 728.083 62.8335 730.477 62.8335C732.87 62.8335 735.241 63.305 737.453 64.2211C739.664 65.1372 741.674 66.4799 743.367 68.1727C745.059 69.8654 746.402 71.875 747.318 74.0866C748.234 76.2983 748.706 78.6687 748.706 81.0626L748.706 127.938C748.706 132.772 750.626 137.409 754.045 140.828C757.464 144.246 762.1 146.167 766.935 146.167C771.77 146.167 776.406 144.246 779.825 140.828C783.243 137.409 785.164 132.772 785.164 127.938L785.164 65.4376M712.247 151.375L694.018 133.146M712.247 151.375L730.477 133.146" stroke="white" stroke-width="7.78632" stroke-linecap="round" stroke-linejoin="round"/>
                    <path class="wiggle-arrow" d="M712.247 566.375L712.247 496.063C712.247 493.669 712.719 491.298 713.635 489.087C714.551 486.875 715.894 484.865 717.587 483.173C719.279 481.48 721.289 480.137 723.501 479.221C725.712 478.305 728.083 477.833 730.477 477.833C732.87 477.833 735.241 478.305 737.453 479.221C739.664 480.137 741.674 481.48 743.367 483.173C745.059 484.865 746.402 486.875 747.318 489.087C748.234 491.298 748.706 493.669 748.706 496.063L748.706 542.938C748.706 547.772 750.626 552.409 754.045 555.827C757.464 559.246 762.1 561.167 766.935 561.167C771.77 561.167 776.406 559.246 779.825 555.827C783.243 552.409 785.164 547.772 785.164 542.938L785.164 480.438M712.247 566.375L694.018 548.146M712.247 566.375L730.477 548.146" stroke="white" stroke-width="7.78632" stroke-linecap="round" stroke-linejoin="round"/>
                    <path class="wiggle-arrow" d="M712.247 774.375L712.247 704.063C712.247 701.669 712.719 699.298 713.635 697.087C714.551 694.875 715.894 692.865 717.587 691.173C719.279 689.48 721.289 688.137 723.501 687.221C725.712 686.305 728.083 685.833 730.477 685.833C732.87 685.833 735.241 686.305 737.453 687.221C739.664 688.137 741.674 689.48 743.367 691.173C745.059 692.865 746.402 694.875 747.318 697.087C748.234 699.298 748.706 701.669 748.706 704.063L748.706 750.938C748.706 755.772 750.626 760.409 754.045 763.827C757.464 767.246 762.1 769.167 766.935 769.167C771.77 769.167 776.406 767.246 779.825 763.827C783.243 760.409 785.164 755.772 785.164 750.938L785.164 688.438M712.247 774.375L694.018 756.146M712.247 774.375L730.477 756.146" stroke="white" stroke-width="7.78632" stroke-linecap="round" stroke-linejoin="round"/>
                    <path class="wiggle-arrow" d="M712.247 982.375L712.247 912.063C712.247 909.669 712.719 907.298 713.635 905.087C714.551 902.875 715.894 900.865 717.587 899.173C719.279 897.48 721.289 896.137 723.501 895.221C725.712 894.305 728.083 893.833 730.477 893.833C732.87 893.833 735.241 894.305 737.453 895.221C739.664 896.137 741.674 897.48 743.367 899.173C745.059 900.865 746.402 902.875 747.318 905.087C748.234 907.298 748.706 909.669 748.706 912.063L748.706 958.938C748.706 963.772 750.626 968.409 754.045 971.827C757.464 975.246 762.1 977.167 766.935 977.167C771.77 977.167 776.406 975.246 779.825 971.827C783.243 968.409 785.164 963.772 785.164 958.938L785.164 896.438M712.247 982.375L694.018 964.146M712.247 982.375L730.477 964.146" stroke="white" stroke-width="7.78632" stroke-linecap="round" stroke-linejoin="round"/>
                    <path class="wiggle-arrow" d="M712.247 1190.38L712.247 1120.06C712.247 1117.67 712.719 1115.3 713.635 1113.09C714.551 1110.87 715.894 1108.87 717.587 1107.17C719.279 1105.48 721.289 1104.14 723.501 1103.22C725.712 1102.3 728.083 1101.83 730.477 1101.83C732.87 1101.83 735.241 1102.3 737.453 1103.22C739.664 1104.14 741.674 1105.48 743.367 1107.17C745.059 1108.87 746.402 1110.87 747.318 1113.09C748.234 1115.3 748.706 1117.67 748.706 1120.06L748.706 1166.94C748.706 1171.77 750.626 1176.41 754.045 1179.83C757.464 1183.25 762.1 1185.17 766.935 1185.17C771.77 1185.17 776.406 1183.25 779.825 1179.83C783.243 1176.41 785.164 1171.77 785.164 1166.94L785.164 1104.44M712.247 1190.38L694.018 1172.15M712.247 1190.38L730.477 1172.15" stroke="white" stroke-width="7.78632" stroke-linecap="round" stroke-linejoin="round"/>
                    <path class="wiggle-arrow" d="M712.247 1398.38L712.247 1328.06C712.247 1325.67 712.719 1323.3 713.635 1321.09C714.551 1318.87 715.894 1316.87 717.587 1315.17C719.279 1313.48 721.289 1312.14 723.501 1311.22C725.712 1310.3 728.083 1309.83 730.477 1309.83C732.87 1309.83 735.241 1310.3 737.453 1311.22C739.664 1312.14 741.674 1313.48 743.367 1315.17C745.059 1316.87 746.402 1318.87 747.318 1321.09C748.234 1323.3 748.706 1325.67 748.706 1328.06L748.706 1374.94C748.706 1379.77 750.626 1384.41 754.045 1387.83C757.464 1391.25 762.1 1393.17 766.935 1393.17C771.77 1393.17 776.406 1391.25 779.825 1387.83C783.243 1384.41 785.164 1379.77 785.164 1374.94L785.164 1312.44M712.247 1398.38L694.018 1380.15M712.247 1398.38L730.477 1380.15" stroke="white" stroke-width="7.78632" stroke-linecap="round" stroke-linejoin="round"/>
                    <path class="wiggle-arrow" d="M712.247 1606.38L712.247 1536.06C712.247 1533.67 712.719 1531.3 713.635 1529.09C714.551 1526.87 715.894 1524.87 717.587 1523.17C719.279 1521.48 721.289 1520.14 723.501 1519.22C725.712 1518.3 728.083 1517.83 730.477 1517.83C732.87 1517.83 735.241 1518.3 737.453 1519.22C739.664 1520.14 741.674 1521.48 743.367 1523.17C745.059 1524.87 746.402 1526.87 747.318 1529.09C748.234 1531.3 748.706 1533.67 748.706 1536.06L748.706 1582.94C748.706 1587.77 750.626 1592.41 754.045 1595.83C757.464 1599.25 762.1 1601.17 766.935 1601.17C771.77 1601.17 776.406 1599.25 779.825 1595.83C783.243 1592.41 785.164 1587.77 785.164 1582.94L785.164 1520.44M712.247 1606.38L694.018 1588.15M712.247 1606.38L730.477 1588.15" stroke="white" stroke-width="7.78632" stroke-linecap="round" stroke-linejoin="round"/>
                    <path class="wiggle-arrow" d="M712.247 1814.38L712.247 1744.06C712.247 1741.67 712.719 1739.3 713.635 1737.09C714.551 1734.87 715.894 1732.87 717.587 1731.17C719.279 1729.48 721.289 1728.14 723.501 1727.22C725.712 1726.3 728.083 1725.83 730.477 1725.83C732.87 1725.83 735.241 1726.3 737.453 1727.22C739.664 1728.14 741.674 1729.48 743.367 1731.17C745.059 1732.87 746.402 1734.87 747.318 1737.09C748.234 1739.3 748.706 1741.67 748.706 1744.06L748.706 1790.94C748.706 1795.77 750.626 1800.41 754.045 1803.83C757.464 1807.25 762.1 1809.17 766.935 1809.17C771.77 1809.17 776.406 1807.25 779.825 1803.83C783.243 1800.41 785.164 1795.77 785.164 1790.94L785.164 1728.44M712.247 1814.38L694.018 1796.15M712.247 1814.38L730.477 1796.15" stroke="white" stroke-width="7.78632" stroke-linecap="round" stroke-linejoin="round"/>
                    <path class="wiggle-arrow" d="M712.247 2022.38L712.247 1952.06C712.247 1949.67 712.719 1947.3 713.635 1945.09C714.551 1942.87 715.894 1940.87 717.587 1939.17C719.279 1937.48 721.289 1936.14 723.501 1935.22C725.712 1934.3 728.083 1933.83 730.477 1933.83C732.87 1933.83 735.241 1934.3 737.453 1935.22C739.664 1936.14 741.674 1937.48 743.367 1939.17C745.059 1940.87 746.402 1942.87 747.318 1945.09C748.234 1947.3 748.706 1949.67 748.706 1952.06L748.706 1998.94C748.706 2003.77 750.626 2008.41 754.045 2011.83C757.464 2015.25 762.1 2017.17 766.935 2017.17C771.77 2017.17 776.406 2015.25 779.825 2011.83C783.243 2008.41 785.164 2003.77 785.164 1998.94L785.164 1936.44M712.247 2022.38L694.018 2004.15M712.247 2022.38L730.477 2004.15" stroke="white" stroke-width="7.78632" stroke-linecap="round" stroke-linejoin="round"/>
                    <path class="wiggle-arrow" d="M712.247 2230.38L712.247 2160.06C712.247 2157.67 712.719 2155.3 713.635 2153.09C714.551 2150.87 715.894 2148.87 717.587 2147.17C719.279 2145.48 721.289 2144.14 723.501 2143.22C725.712 2142.3 728.083 2141.83 730.477 2141.83C732.87 2141.83 735.241 2142.3 737.453 2143.22C739.664 2144.14 741.674 2145.48 743.367 2147.17C745.059 2148.87 746.402 2150.87 747.318 2153.09C748.234 2155.3 748.706 2157.67 748.706 2160.06L748.706 2206.94C748.706 2211.77 750.626 2216.41 754.045 2219.83C757.464 2223.25 762.1 2225.17 766.935 2225.17C771.77 2225.17 776.406 2223.25 779.825 2219.83C783.243 2216.41 785.164 2211.77 785.164 2206.94L785.164 2144.44M712.247 2230.38L694.018 2212.15M712.247 2230.38L730.477 2212.15" stroke="white" stroke-width="7.78632" stroke-linecap="round" stroke-linejoin="round"/>
                    <path class="wiggle-arrow" d="M504.247 358.375L504.247 288.063C504.247 285.669 504.719 283.298 505.635 281.087C506.551 278.875 507.894 276.865 509.587 275.173C511.279 273.48 513.289 272.137 515.501 271.221C517.712 270.305 520.083 269.833 522.477 269.833C524.87 269.833 527.241 270.305 529.453 271.221C531.664 272.137 533.674 273.48 535.367 275.173C537.059 276.865 538.402 278.875 539.318 281.087C540.234 283.298 540.706 285.669 540.706 288.063L540.706 334.938C540.706 339.772 542.626 344.409 546.045 347.828C549.464 351.246 554.1 353.167 558.935 353.167C563.77 353.167 568.406 351.246 571.825 347.828C575.243 344.409 577.164 339.772 577.164 334.938L577.164 272.438M504.247 358.375L486.018 340.146M504.247 358.375L522.477 340.146" stroke="white" stroke-width="7.78632" stroke-linecap="round" stroke-linejoin="round"/>
                    <path class="wiggle-arrow" d="M504.247 151.375L504.247 81.0626C504.247 78.6687 504.719 76.2983 505.635 74.0866C506.551 71.875 507.894 69.8654 509.587 68.1727C511.279 66.4799 513.289 65.1372 515.501 64.2211C517.712 63.305 520.083 62.8335 522.477 62.8335C524.87 62.8335 527.241 63.305 529.453 64.2211C531.664 65.1372 533.674 66.4799 535.367 68.1727C537.059 69.8654 538.402 71.875 539.318 74.0866C540.234 76.2983 540.706 78.6687 540.706 81.0626L540.706 127.938C540.706 132.772 542.626 137.409 546.045 140.828C549.464 144.246 554.1 146.167 558.935 146.167C563.77 146.167 568.406 144.246 571.825 140.828C575.243 137.409 577.164 132.772 577.164 127.938L577.164 65.4376M504.247 151.375L486.018 133.146M504.247 151.375L522.477 133.146" stroke="white" stroke-width="7.78632" stroke-linecap="round" stroke-linejoin="round"/>
                    <path class="wiggle-arrow" d="M504.247 566.375L504.247 496.063C504.247 493.669 504.719 491.298 505.635 489.087C506.551 486.875 507.894 484.865 509.587 483.173C511.279 481.48 513.289 480.137 515.501 479.221C517.712 478.305 520.083 477.833 522.477 477.833C524.87 477.833 527.241 478.305 529.453 479.221C531.664 480.137 533.674 481.48 535.367 483.173C537.059 484.865 538.402 486.875 539.318 489.087C540.234 491.298 540.706 493.669 540.706 496.063L540.706 542.938C540.706 547.772 542.626 552.409 546.045 555.827C549.464 559.246 554.1 561.167 558.935 561.167C563.77 561.167 568.406 559.246 571.825 555.827C575.243 552.409 577.164 547.772 577.164 542.938L577.164 480.438M504.247 566.375L486.018 548.146M504.247 566.375L522.477 548.146" stroke="white" stroke-width="7.78632" stroke-linecap="round" stroke-linejoin="round"/>
                    <path class="wiggle-arrow" d="M504.247 774.375L504.247 704.063C504.247 701.669 504.719 699.298 505.635 697.087C506.551 694.875 507.894 692.865 509.587 691.173C511.279 689.48 513.289 688.137 515.501 687.221C517.712 686.305 520.083 685.833 522.477 685.833C524.87 685.833 527.241 686.305 529.453 687.221C531.664 688.137 533.674 689.48 535.367 691.173C537.059 692.865 538.402 694.875 539.318 697.087C540.234 699.298 540.706 701.669 540.706 704.063L540.706 750.938C540.706 755.772 542.626 760.409 546.045 763.827C549.464 767.246 554.1 769.167 558.935 769.167C563.77 769.167 568.406 767.246 571.825 763.827C575.243 760.409 577.164 755.772 577.164 750.938L577.164 688.438M504.247 774.375L486.018 756.146M504.247 774.375L522.477 756.146" stroke="white" stroke-width="7.78632" stroke-linecap="round" stroke-linejoin="round"/>
                    <path class="wiggle-arrow" d="M504.247 982.375L504.247 912.063C504.247 909.669 504.719 907.298 505.635 905.087C506.551 902.875 507.894 900.865 509.587 899.173C511.279 897.48 513.289 896.137 515.501 895.221C517.712 894.305 520.083 893.833 522.477 893.833C524.87 893.833 527.241 894.305 529.453 895.221C531.664 896.137 533.674 897.48 535.367 899.173C537.059 900.865 538.402 902.875 539.318 905.087C540.234 907.298 540.706 909.669 540.706 912.063L540.706 958.938C540.706 963.772 542.626 968.409 546.045 971.827C549.464 975.246 554.1 977.167 558.935 977.167C563.77 977.167 568.406 975.246 571.825 971.827C575.243 968.409 577.164 963.772 577.164 958.938L577.164 896.438M504.247 982.375L486.018 964.146M504.247 982.375L522.477 964.146" stroke="white" stroke-width="7.78632" stroke-linecap="round" stroke-linejoin="round"/>
                    <path class="wiggle-arrow" d="M504.247 1190.38L504.247 1120.06C504.247 1117.67 504.719 1115.3 505.635 1113.09C506.551 1110.87 507.894 1108.87 509.587 1107.17C511.279 1105.48 513.289 1104.14 515.501 1103.22C517.712 1102.3 520.083 1101.83 522.477 1101.83C524.87 1101.83 527.241 1102.3 529.453 1103.22C531.664 1104.14 533.674 1105.48 535.367 1107.17C537.059 1108.87 538.402 1110.87 539.318 1113.09C540.234 1115.3 540.706 1117.67 540.706 1120.06L540.706 1166.94C540.706 1171.77 542.626 1176.41 546.045 1179.83C549.464 1183.25 554.1 1185.17 558.935 1185.17C563.77 1185.17 568.406 1183.25 571.825 1179.83C575.243 1176.41 577.164 1171.77 577.164 1166.94L577.164 1104.44M504.247 1190.38L486.018 1172.15M504.247 1190.38L522.477 1172.15" stroke="white" stroke-width="7.78632" stroke-linecap="round" stroke-linejoin="round"/>
                    <path class="wiggle-arrow" d="M504.247 1398.38L504.247 1328.06C504.247 1325.67 504.719 1323.3 505.635 1321.09C506.551 1318.87 507.894 1316.87 509.587 1315.17C511.279 1313.48 513.289 1312.14 515.501 1311.22C517.712 1310.3 520.083 1309.83 522.477 1309.83C524.87 1309.83 527.241 1310.3 529.453 1311.22C531.664 1312.14 533.674 1313.48 535.367 1315.17C537.059 1316.87 538.402 1318.87 539.318 1321.09C540.234 1323.3 540.706 1325.67 540.706 1328.06L540.706 1374.94C540.706 1379.77 542.626 1384.41 546.045 1387.83C549.464 1391.25 554.1 1393.17 558.935 1393.17C563.77 1393.17 568.406 1391.25 571.825 1387.83C575.243 1384.41 577.164 1379.77 577.164 1374.94L577.164 1312.44M504.247 1398.38L486.018 1380.15M504.247 1398.38L522.477 1380.15" stroke="white" stroke-width="7.78632" stroke-linecap="round" stroke-linejoin="round"/>
                    <path class="wiggle-arrow" d="M504.247 1606.38L504.247 1536.06C504.247 1533.67 504.719 1531.3 505.635 1529.09C506.551 1526.87 507.894 1524.87 509.587 1523.17C511.279 1521.48 513.289 1520.14 515.501 1519.22C517.712 1518.3 520.083 1517.83 522.477 1517.83C524.87 1517.83 527.241 1518.3 529.453 1519.22C531.664 1520.14 533.674 1521.48 535.367 1523.17C537.059 1524.87 538.402 1526.87 539.318 1529.09C540.234 1531.3 540.706 1533.67 540.706 1536.06L540.706 1582.94C540.706 1587.77 542.626 1592.41 546.045 1595.83C549.464 1599.25 554.1 1601.17 558.935 1601.17C563.77 1601.17 568.406 1599.25 571.825 1595.83C575.243 1592.41 577.164 1587.77 577.164 1582.94L577.164 1520.44M504.247 1606.38L486.018 1588.15M504.247 1606.38L522.477 1588.15" stroke="white" stroke-width="7.78632" stroke-linecap="round" stroke-linejoin="round"/>
                    <path class="wiggle-arrow" d="M504.247 1814.38L504.247 1744.06C504.247 1741.67 504.719 1739.3 505.635 1737.09C506.551 1734.87 507.894 1732.87 509.587 1731.17C511.279 1729.48 513.289 1728.14 515.501 1727.22C517.712 1726.3 520.083 1725.83 522.477 1725.83C524.87 1725.83 527.241 1726.3 529.453 1727.22C531.664 1728.14 533.674 1729.48 535.367 1731.17C537.059 1732.87 538.402 1734.87 539.318 1737.09C540.234 1739.3 540.706 1741.67 540.706 1744.06L540.706 1790.94C540.706 1795.77 542.626 1800.41 546.045 1803.83C549.464 1807.25 554.1 1809.17 558.935 1809.17C563.77 1809.17 568.406 1807.25 571.825 1803.83C575.243 1800.41 577.164 1795.77 577.164 1790.94L577.164 1728.44M504.247 1814.38L486.018 1796.15M504.247 1814.38L522.477 1796.15" stroke="white" stroke-width="7.78632" stroke-linecap="round" stroke-linejoin="round"/>
                    <path class="wiggle-arrow" d="M504.247 2022.38L504.247 1952.06C504.247 1949.67 504.719 1947.3 505.635 1945.09C506.551 1942.87 507.894 1940.87 509.587 1939.17C511.279 1937.48 513.289 1936.14 515.501 1935.22C517.712 1934.3 520.083 1933.83 522.477 1933.83C524.87 1933.83 527.241 1934.3 529.453 1935.22C531.664 1936.14 533.674 1937.48 535.367 1939.17C537.059 1940.87 538.402 1942.87 539.318 1945.09C540.234 1947.3 540.706 1949.67 540.706 1952.06L540.706 1998.94C540.706 2003.77 542.626 2008.41 546.045 2011.83C549.464 2015.25 554.1 2017.17 558.935 2017.17C563.77 2017.17 568.406 2015.25 571.825 2011.83C575.243 2008.41 577.164 2003.77 577.164 1998.94L577.164 1936.44M504.247 2022.38L486.018 2004.15M504.247 2022.38L522.477 2004.15" stroke="white" stroke-width="7.78632" stroke-linecap="round" stroke-linejoin="round"/>
                    <path class="wiggle-arrow" d="M504.247 2230.38L504.247 2160.06C504.247 2157.67 504.719 2155.3 505.635 2153.09C506.551 2150.87 507.894 2148.87 509.587 2147.17C511.279 2145.48 513.289 2144.14 515.501 2143.22C517.712 2142.3 520.083 2141.83 522.477 2141.83C524.87 2141.83 527.241 2142.3 529.453 2143.22C531.664 2144.14 533.674 2145.48 535.367 2147.17C537.059 2148.87 538.402 2150.87 539.318 2153.09C540.234 2155.3 540.706 2157.67 540.706 2160.06L540.706 2206.94C540.706 2211.77 542.626 2216.41 546.045 2219.83C549.464 2223.25 554.1 2225.17 558.935 2225.17C563.77 2225.17 568.406 2223.25 571.825 2219.83C575.243 2216.41 577.164 2211.77 577.164 2206.94L577.164 2144.44M504.247 2230.38L486.018 2212.15M504.247 2230.38L522.477 2212.15" stroke="white" stroke-width="7.78632" stroke-linecap="round" stroke-linejoin="round"/>
                    <path class="wiggle-arrow" d="M296.247 358.375L296.247 288.063C296.247 285.669 296.719 283.298 297.635 281.087C298.551 278.875 299.894 276.865 301.587 275.173C303.279 273.48 305.289 272.137 307.501 271.221C309.712 270.305 312.083 269.833 314.477 269.833C316.87 269.833 319.241 270.305 321.453 271.221C323.664 272.137 325.674 273.48 327.367 275.173C329.059 276.865 330.402 278.875 331.318 281.087C332.234 283.298 332.706 285.669 332.706 288.063L332.706 334.938C332.706 339.772 334.626 344.409 338.045 347.828C341.464 351.246 346.1 353.167 350.935 353.167C355.77 353.167 360.406 351.246 363.825 347.828C367.243 344.409 369.164 339.772 369.164 334.938L369.164 272.438M296.247 358.375L278.018 340.146M296.247 358.375L314.477 340.146" stroke="white" stroke-width="7.78632" stroke-linecap="round" stroke-linejoin="round"/>
                    <path class="wiggle-arrow" d="M296.247 151.375L296.247 81.0626C296.247 78.6687 296.719 76.2983 297.635 74.0866C298.551 71.875 299.894 69.8654 301.587 68.1727C303.279 66.4799 305.289 65.1372 307.501 64.2211C309.712 63.305 312.083 62.8335 314.477 62.8335C316.87 62.8335 319.241 63.305 321.453 64.2211C323.664 65.1372 325.674 66.4799 327.367 68.1727C329.059 69.8654 330.402 71.875 331.318 74.0866C332.234 76.2983 332.706 78.6687 332.706 81.0626L332.706 127.938C332.706 132.772 334.626 137.409 338.045 140.828C341.464 144.246 346.1 146.167 350.935 146.167C355.77 146.167 360.406 144.246 363.825 140.828C367.243 137.409 369.164 132.772 369.164 127.938L369.164 65.4376M296.247 151.375L278.018 133.146M296.247 151.375L314.477 133.146" stroke="white" stroke-width="7.78632" stroke-linecap="round" stroke-linejoin="round"/>
                    <path class="wiggle-arrow" d="M296.247 566.375L296.247 496.063C296.247 493.669 296.719 491.298 297.635 489.087C298.551 486.875 299.894 484.865 301.587 483.173C303.279 481.48 305.289 480.137 307.501 479.221C309.712 478.305 312.083 477.833 314.477 477.833C316.87 477.833 319.241 478.305 321.453 479.221C323.664 480.137 325.674 481.48 327.367 483.173C329.059 484.865 330.402 486.875 331.318 489.087C332.234 491.298 332.706 493.669 332.706 496.063L332.706 542.938C332.706 547.772 334.626 552.409 338.045 555.827C341.464 559.246 346.1 561.167 350.935 561.167C355.77 561.167 360.406 559.246 363.825 555.827C367.243 552.409 369.164 547.772 369.164 542.938L369.164 480.438M296.247 566.375L278.018 548.146M296.247 566.375L314.477 548.146" stroke="white" stroke-width="7.78632" stroke-linecap="round" stroke-linejoin="round"/>
                    <path class="wiggle-arrow" d="M296.247 774.375L296.247 704.063C296.247 701.669 296.719 699.298 297.635 697.087C298.551 694.875 299.894 692.865 301.587 691.173C303.279 689.48 305.289 688.137 307.501 687.221C309.712 686.305 312.083 685.833 314.477 685.833C316.87 685.833 319.241 686.305 321.453 687.221C323.664 688.137 325.674 689.48 327.367 691.173C329.059 692.865 330.402 694.875 331.318 697.087C332.234 699.298 332.706 701.669 332.706 704.063L332.706 750.938C332.706 755.772 334.626 760.409 338.045 763.827C341.464 767.246 346.1 769.167 350.935 769.167C355.77 769.167 360.406 767.246 363.825 763.827C367.243 760.409 369.164 755.772 369.164 750.938L369.164 688.438M296.247 774.375L278.018 756.146M296.247 774.375L314.477 756.146" stroke="white" stroke-width="7.78632" stroke-linecap="round" stroke-linejoin="round"/>
                    <path class="wiggle-arrow" d="M296.247 982.375L296.247 912.063C296.247 909.669 296.719 907.298 297.635 905.087C298.551 902.875 299.894 900.865 301.587 899.173C303.279 897.48 305.289 896.137 307.501 895.221C309.712 894.305 312.083 893.833 314.477 893.833C316.87 893.833 319.241 894.305 321.453 895.221C323.664 896.137 325.674 897.48 327.367 899.173C329.059 900.865 330.402 902.875 331.318 905.087C332.234 907.298 332.706 909.669 332.706 912.063L332.706 958.938C332.706 963.772 334.626 968.409 338.045 971.827C341.464 975.246 346.1 977.167 350.935 977.167C355.77 977.167 360.406 975.246 363.825 971.827C367.243 968.409 369.164 963.772 369.164 958.938L369.164 896.438M296.247 982.375L278.018 964.146M296.247 982.375L314.477 964.146" stroke="white" stroke-width="7.78632" stroke-linecap="round" stroke-linejoin="round"/>
                    <path class="wiggle-arrow" d="M296.247 1190.38L296.247 1120.06C296.247 1117.67 296.719 1115.3 297.635 1113.09C298.551 1110.87 299.894 1108.87 301.587 1107.17C303.279 1105.48 305.289 1104.14 307.501 1103.22C309.712 1102.3 312.083 1101.83 314.477 1101.83C316.87 1101.83 319.241 1102.3 321.453 1103.22C323.664 1104.14 325.674 1105.48 327.367 1107.17C329.059 1108.87 330.402 1110.87 331.318 1113.09C332.234 1115.3 332.706 1117.67 332.706 1120.06L332.706 1166.94C332.706 1171.77 334.626 1176.41 338.045 1179.83C341.464 1183.25 346.1 1185.17 350.935 1185.17C355.77 1185.17 360.406 1183.25 363.825 1179.83C367.243 1176.41 369.164 1171.77 369.164 1166.94L369.164 1104.44M296.247 1190.38L278.018 1172.15M296.247 1190.38L314.477 1172.15" stroke="white" stroke-width="7.78632" stroke-linecap="round" stroke-linejoin="round"/>
                    <path class="wiggle-arrow" d="M296.247 1398.38L296.247 1328.06C296.247 1325.67 296.719 1323.3 297.635 1321.09C298.551 1318.87 299.894 1316.87 301.587 1315.17C303.279 1313.48 305.289 1312.14 307.501 1311.22C309.712 1310.3 312.083 1309.83 314.477 1309.83C316.87 1309.83 319.241 1310.3 321.453 1311.22C323.664 1312.14 325.674 1313.48 327.367 1315.17C329.059 1316.87 330.402 1318.87 331.318 1321.09C332.234 1323.3 332.706 1325.67 332.706 1328.06L332.706 1374.94C332.706 1379.77 334.626 1384.41 338.045 1387.83C341.464 1391.25 346.1 1393.17 350.935 1393.17C355.77 1393.17 360.406 1391.25 363.825 1387.83C367.243 1384.41 369.164 1379.77 369.164 1374.94L369.164 1312.44M296.247 1398.38L278.018 1380.15M296.247 1398.38L314.477 1380.15" stroke="white" stroke-width="7.78632" stroke-linecap="round" stroke-linejoin="round"/>
                    <path class="wiggle-arrow" d="M296.247 1606.38L296.247 1536.06C296.247 1533.67 296.719 1531.3 297.635 1529.09C298.551 1526.87 299.894 1524.87 301.587 1523.17C303.279 1521.48 305.289 1520.14 307.501 1519.22C309.712 1518.3 312.083 1517.83 314.477 1517.83C316.87 1517.83 319.241 1518.3 321.453 1519.22C323.664 1520.14 325.674 1521.48 327.367 1523.17C329.059 1524.87 330.402 1526.87 331.318 1529.09C332.234 1531.3 332.706 1533.67 332.706 1536.06L332.706 1582.94C332.706 1587.77 334.626 1592.41 338.045 1595.83C341.464 1599.25 346.1 1601.17 350.935 1601.17C355.77 1601.17 360.406 1599.25 363.825 1595.83C367.243 1592.41 369.164 1587.77 369.164 1582.94L369.164 1520.44M296.247 1606.38L278.018 1588.15M296.247 1606.38L314.477 1588.15" stroke="white" stroke-width="7.78632" stroke-linecap="round" stroke-linejoin="round"/>
                    <path class="wiggle-arrow" d="M296.247 1814.38L296.247 1744.06C296.247 1741.67 296.719 1739.3 297.635 1737.09C298.551 1734.87 299.894 1732.87 301.587 1731.17C303.279 1729.48 305.289 1728.14 307.501 1727.22C309.712 1726.3 312.083 1725.83 314.477 1725.83C316.87 1725.83 319.241 1726.3 321.453 1727.22C323.664 1728.14 325.674 1729.48 327.367 1731.17C329.059 1732.87 330.402 1734.87 331.318 1737.09C332.234 1739.3 332.706 1741.67 332.706 1744.06L332.706 1790.94C332.706 1795.77 334.626 1800.41 338.045 1803.83C341.464 1807.25 346.1 1809.17 350.935 1809.17C355.77 1809.17 360.406 1807.25 363.825 1803.83C367.243 1800.41 369.164 1795.77 369.164 1790.94L369.164 1728.44M296.247 1814.38L278.018 1796.15M296.247 1814.38L314.477 1796.15" stroke="white" stroke-width="7.78632" stroke-linecap="round" stroke-linejoin="round"/>
                    <path class="wiggle-arrow" d="M296.247 2022.38L296.247 1952.06C296.247 1949.67 296.719 1947.3 297.635 1945.09C298.551 1942.87 299.894 1940.87 301.587 1939.17C303.279 1937.48 305.289 1936.14 307.501 1935.22C309.712 1934.3 312.083 1933.83 314.477 1933.83C316.87 1933.83 319.241 1934.3 321.453 1935.22C323.664 1936.14 325.674 1937.48 327.367 1939.17C329.059 1940.87 330.402 1942.87 331.318 1945.09C332.234 1947.3 332.706 1949.67 332.706 1952.06L332.706 1998.94C332.706 2003.77 334.626 2008.41 338.045 2011.83C341.464 2015.25 346.1 2017.17 350.935 2017.17C355.77 2017.17 360.406 2015.25 363.825 2011.83C367.243 2008.41 369.164 2003.77 369.164 1998.94L369.164 1936.44M296.247 2022.38L278.018 2004.15M296.247 2022.38L314.477 2004.15" stroke="white" stroke-width="7.78632" stroke-linecap="round" stroke-linejoin="round"/>
                    <path class="wiggle-arrow" d="M296.247 2230.38L296.247 2160.06C296.247 2157.67 296.719 2155.3 297.635 2153.09C298.551 2150.87 299.894 2148.87 301.587 2147.17C303.279 2145.48 305.289 2144.14 307.501 2143.22C309.712 2142.3 312.083 2141.83 314.477 2141.83C316.87 2141.83 319.241 2142.3 321.453 2143.22C323.664 2144.14 325.674 2145.48 327.367 2147.17C329.059 2148.87 330.402 2150.87 331.318 2153.09C332.234 2155.3 332.706 2157.67 332.706 2160.06L332.706 2206.94C332.706 2211.77 334.626 2216.41 338.045 2219.83C341.464 2223.25 346.1 2225.17 350.935 2225.17C355.77 2225.17 360.406 2223.25 363.825 2219.83C367.243 2216.41 369.164 2211.77 369.164 2206.94L369.164 2144.44M296.247 2230.38L278.018 2212.15M296.247 2230.38L314.477 2212.15" stroke="white" stroke-width="7.78632" stroke-linecap="round" stroke-linejoin="round"/>
                    <path class="wiggle-arrow" d="M88.2474 358.375L88.2474 288.063C88.2474 285.669 88.7189 283.298 89.635 281.087C90.5511 278.875 91.8939 276.865 93.5866 275.173C95.2793 273.48 97.2889 272.137 99.5006 271.221C101.712 270.305 104.083 269.833 106.477 269.833C108.87 269.833 111.241 270.305 113.453 271.221C115.664 272.137 117.674 273.48 119.367 275.173C121.059 276.865 122.402 278.875 123.318 281.087C124.234 283.298 124.706 285.669 124.706 288.063L124.706 334.938C124.706 339.772 126.626 344.409 130.045 347.828C133.464 351.246 138.1 353.167 142.935 353.167C147.77 353.167 152.406 351.246 155.825 347.828C159.243 344.409 161.164 339.772 161.164 334.938L161.164 272.438M88.2474 358.375L70.0182 340.146M88.2474 358.375L106.477 340.146" stroke="white" stroke-width="7.78632" stroke-linecap="round" stroke-linejoin="round"/>
                    <path class="wiggle-arrow" d="M88.2474 151.375L88.2474 81.0626C88.2474 78.6687 88.7189 76.2983 89.635 74.0866C90.5511 71.875 91.8939 69.8654 93.5866 68.1727C95.2793 66.4799 97.2889 65.1372 99.5006 64.2211C101.712 63.305 104.083 62.8335 106.477 62.8335C108.87 62.8335 111.241 63.305 113.453 64.2211C115.664 65.1372 117.674 66.4799 119.367 68.1727C121.059 69.8654 122.402 71.875 123.318 74.0866C124.234 76.2983 124.706 78.6687 124.706 81.0626L124.706 127.938C124.706 132.772 126.626 137.409 130.045 140.828C133.464 144.246 138.1 146.167 142.935 146.167C147.77 146.167 152.406 144.246 155.825 140.828C159.243 137.409 161.164 132.772 161.164 127.938L161.164 65.4376M88.2474 151.375L70.0182 133.146M88.2474 151.375L106.477 133.146" stroke="white" stroke-width="7.78632" stroke-linecap="round" stroke-linejoin="round"/>
                    <path class="wiggle-arrow" d="M88.2474 566.375L88.2474 496.063C88.2474 493.669 88.7189 491.298 89.635 489.087C90.5511 486.875 91.8939 484.865 93.5866 483.173C95.2793 481.48 97.2889 480.137 99.5006 479.221C101.712 478.305 104.083 477.833 106.477 477.833C108.87 477.833 111.241 478.305 113.453 479.221C115.664 480.137 117.674 481.48 119.367 483.173C121.059 484.865 122.402 486.875 123.318 489.087C124.234 491.298 124.706 493.669 124.706 496.063L124.706 542.938C124.706 547.772 126.626 552.409 130.045 555.827C133.464 559.246 138.1 561.167 142.935 561.167C147.77 561.167 152.406 559.246 155.825 555.827C159.243 552.409 161.164 547.772 161.164 542.938L161.164 480.438M88.2474 566.375L70.0182 548.146M88.2474 566.375L106.477 548.146" stroke="white" stroke-width="7.78632" stroke-linecap="round" stroke-linejoin="round"/>
                    <path class="wiggle-arrow" d="M88.2474 774.375L88.2474 704.063C88.2474 701.669 88.7189 699.298 89.635 697.087C90.5511 694.875 91.8939 692.865 93.5866 691.173C95.2793 689.48 97.2889 688.137 99.5006 687.221C101.712 686.305 104.083 685.833 106.477 685.833C108.87 685.833 111.241 686.305 113.453 687.221C115.664 688.137 117.674 689.48 119.367 691.173C121.059 692.865 122.402 694.875 123.318 697.087C124.234 699.298 124.706 701.669 124.706 704.063L124.706 750.938C124.706 755.772 126.626 760.409 130.045 763.827C133.464 767.246 138.1 769.167 142.935 769.167C147.77 769.167 152.406 767.246 155.825 763.827C159.243 760.409 161.164 755.772 161.164 750.938L161.164 688.438M88.2474 774.375L70.0182 756.146M88.2474 774.375L106.477 756.146" stroke="white" stroke-width="7.78632" stroke-linecap="round" stroke-linejoin="round"/>
                    <path class="wiggle-arrow" d="M88.2474 982.375L88.2474 912.063C88.2474 909.669 88.7189 907.298 89.635 905.087C90.5511 902.875 91.8939 900.865 93.5866 899.173C95.2793 897.48 97.2889 896.137 99.5006 895.221C101.712 894.305 104.083 893.833 106.477 893.833C108.87 893.833 111.241 894.305 113.453 895.221C115.664 896.137 117.674 897.48 119.367 899.173C121.059 900.865 122.402 902.875 123.318 905.087C124.234 907.298 124.706 909.669 124.706 912.063L124.706 958.938C124.706 963.772 126.626 968.409 130.045 971.827C133.464 975.246 138.1 977.167 142.935 977.167C147.77 977.167 152.406 975.246 155.825 971.827C159.243 968.409 161.164 963.772 161.164 958.938L161.164 896.438M88.2474 982.375L70.0182 964.146M88.2474 982.375L106.477 964.146" stroke="white" stroke-width="7.78632" stroke-linecap="round" stroke-linejoin="round"/>
                    <path class="wiggle-arrow" d="M88.2474 1190.38L88.2474 1120.06C88.2474 1117.67 88.7189 1115.3 89.635 1113.09C90.5511 1110.87 91.8939 1108.87 93.5866 1107.17C95.2793 1105.48 97.2889 1104.14 99.5006 1103.22C101.712 1102.3 104.083 1101.83 106.477 1101.83C108.87 1101.83 111.241 1102.3 113.453 1103.22C115.664 1104.14 117.674 1105.48 119.367 1107.17C121.059 1108.87 122.402 1110.87 123.318 1113.09C124.234 1115.3 124.706 1117.67 124.706 1120.06L124.706 1166.94C124.706 1171.77 126.626 1176.41 130.045 1179.83C133.464 1183.25 138.1 1185.17 142.935 1185.17C147.77 1185.17 152.406 1183.25 155.825 1179.83C159.243 1176.41 161.164 1171.77 161.164 1166.94L161.164 1104.44M88.2474 1190.38L70.0182 1172.15M88.2474 1190.38L106.477 1172.15" stroke="white" stroke-width="7.78632" stroke-linecap="round" stroke-linejoin="round"/>
                    <path class="wiggle-arrow" d="M88.2474 1398.38L88.2474 1328.06C88.2474 1325.67 88.7189 1323.3 89.635 1321.09C90.5511 1318.87 91.8939 1316.87 93.5866 1315.17C95.2793 1313.48 97.2889 1312.14 99.5006 1311.22C101.712 1310.3 104.083 1309.83 106.477 1309.83C108.87 1309.83 111.241 1310.3 113.453 1311.22C115.664 1312.14 117.674 1313.48 119.367 1315.17C121.059 1316.87 122.402 1318.87 123.318 1321.09C124.234 1323.3 124.706 1325.67 124.706 1328.06L124.706 1374.94C124.706 1379.77 126.626 1384.41 130.045 1387.83C133.464 1391.25 138.1 1393.17 142.935 1393.17C147.77 1393.17 152.406 1391.25 155.825 1387.83C159.243 1384.41 161.164 1379.77 161.164 1374.94L161.164 1312.44M88.2474 1398.38L70.0182 1380.15M88.2474 1398.38L106.477 1380.15" stroke="white" stroke-width="7.78632" stroke-linecap="round" stroke-linejoin="round"/>
                    <path class="wiggle-arrow" d="M88.2474 1606.38L88.2474 1536.06C88.2474 1533.67 88.7189 1531.3 89.635 1529.09C90.5511 1526.87 91.8939 1524.87 93.5866 1523.17C95.2793 1521.48 97.2889 1520.14 99.5006 1519.22C101.712 1518.3 104.083 1517.83 106.477 1517.83C108.87 1517.83 111.241 1518.3 113.453 1519.22C115.664 1520.14 117.674 1521.48 119.367 1523.17C121.059 1524.87 122.402 1526.87 123.318 1529.09C124.234 1531.3 124.706 1533.67 124.706 1536.06L124.706 1582.94C124.706 1587.77 126.626 1592.41 130.045 1595.83C133.464 1599.25 138.1 1601.17 142.935 1601.17C147.77 1601.17 152.406 1599.25 155.825 1595.83C159.243 1592.41 161.164 1587.77 161.164 1582.94L161.164 1520.44M88.2474 1606.38L70.0182 1588.15M88.2474 1606.38L106.477 1588.15" stroke="white" stroke-width="7.78632" stroke-linecap="round" stroke-linejoin="round"/>
                    <path class="wiggle-arrow" d="M88.2474 1814.38L88.2474 1744.06C88.2474 1741.67 88.7189 1739.3 89.635 1737.09C90.5511 1734.87 91.8939 1732.87 93.5866 1731.17C95.2793 1729.48 97.2889 1728.14 99.5006 1727.22C101.712 1726.3 104.083 1725.83 106.477 1725.83C108.87 1725.83 111.241 1726.3 113.453 1727.22C115.664 1728.14 117.674 1729.48 119.367 1731.17C121.059 1732.87 122.402 1734.87 123.318 1737.09C124.234 1739.3 124.706 1741.67 124.706 1744.06L124.706 1790.94C124.706 1795.77 126.626 1800.41 130.045 1803.83C133.464 1807.25 138.1 1809.17 142.935 1809.17C147.77 1809.17 152.406 1807.25 155.825 1803.83C159.243 1800.41 161.164 1795.77 161.164 1790.94L161.164 1728.44M88.2474 1814.38L70.0182 1796.15M88.2474 1814.38L106.477 1796.15" stroke="white" stroke-width="7.78632" stroke-linecap="round" stroke-linejoin="round"/>
                    <path class="wiggle-arrow" d="M88.2474 2022.38L88.2474 1952.06C88.2474 1949.67 88.7189 1947.3 89.635 1945.09C90.5511 1942.87 91.8939 1940.87 93.5866 1939.17C95.2793 1937.48 97.2889 1936.14 99.5006 1935.22C101.712 1934.3 104.083 1933.83 106.477 1933.83C108.87 1933.83 111.241 1934.3 113.453 1935.22C115.664 1936.14 117.674 1937.48 119.367 1939.17C121.059 1940.87 122.402 1942.87 123.318 1945.09C124.234 1947.3 124.706 1949.67 124.706 1952.06L124.706 1998.94C124.706 2003.77 126.626 2008.41 130.045 2011.83C133.464 2015.25 138.1 2017.17 142.935 2017.17C147.77 2017.17 152.406 2015.25 155.825 2011.83C159.243 2008.41 161.164 2003.77 161.164 1998.94L161.164 1936.44M88.2474 2022.38L70.0182 2004.15M88.2474 2022.38L106.477 2004.15" stroke="white" stroke-width="7.78632" stroke-linecap="round" stroke-linejoin="round"/>
                    <path class="wiggle-arrow" d="M88.2474 2230.38L88.2474 2160.06C88.2474 2157.67 88.7189 2155.3 89.635 2153.09C90.5511 2150.87 91.8939 2148.87 93.5866 2147.17C95.2793 2145.48 97.2889 2144.14 99.5006 2143.22C101.712 2142.3 104.083 2141.83 106.477 2141.83C108.87 2141.83 111.241 2142.3 113.453 2143.22C115.664 2144.14 117.674 2145.48 119.367 2147.17C121.059 2148.87 122.402 2150.87 123.318 2153.09C124.234 2155.3 124.706 2157.67 124.706 2160.06L124.706 2206.94C124.706 2211.77 126.626 2216.41 130.045 2219.83C133.464 2223.25 138.1 2225.17 142.935 2225.17C147.77 2225.17 152.406 2223.25 155.825 2219.83C159.243 2216.41 161.164 2211.77 161.164 2206.94L161.164 2144.44M88.2474 2230.38L70.0182 2212.15M88.2474 2230.38L106.477 2212.15" stroke="white" stroke-width="7.78632" stroke-linecap="round" stroke-linejoin="round"/>
                    <path class="wiggle-arrow" d="M920.247 358.375L920.247 288.063C920.247 285.669 920.719 283.298 921.635 281.087C922.551 278.875 923.894 276.865 925.587 275.173C927.279 273.48 929.289 272.137 931.501 271.221C933.712 270.305 936.083 269.833 938.477 269.833C940.87 269.833 943.241 270.305 945.453 271.221C947.664 272.137 949.674 273.48 951.367 275.173C953.059 276.865 954.402 278.875 955.318 281.087C956.234 283.298 956.706 285.669 956.706 288.063L956.706 334.938C956.706 339.772 958.626 344.409 962.045 347.828C965.464 351.246 970.1 353.167 974.935 353.167C979.77 353.167 984.406 351.246 987.825 347.828C991.243 344.409 993.164 339.772 993.164 334.938L993.164 272.438M920.247 358.375L902.018 340.146M920.247 358.375L938.477 340.146" stroke="white" stroke-width="7.78632" stroke-linecap="round" stroke-linejoin="round"/>
                    <path class="wiggle-arrow" d="M920.247 151.375L920.247 81.0626C920.247 78.6687 920.719 76.2983 921.635 74.0866C922.551 71.875 923.894 69.8654 925.587 68.1727C927.279 66.4799 929.289 65.1372 931.501 64.2211C933.712 63.305 936.083 62.8335 938.477 62.8335C940.87 62.8335 943.241 63.305 945.453 64.2211C947.664 65.1372 949.674 66.4799 951.367 68.1727C953.059 69.8654 954.402 71.875 955.318 74.0866C956.234 76.2983 956.706 78.6687 956.706 81.0626L956.706 127.938C956.706 132.772 958.626 137.409 962.045 140.828C965.464 144.246 970.1 146.167 974.935 146.167C979.77 146.167 984.406 144.246 987.825 140.828C991.243 137.409 993.164 132.772 993.164 127.938L993.164 65.4376M920.247 151.375L902.018 133.146M920.247 151.375L938.477 133.146" stroke="white" stroke-width="7.78632" stroke-linecap="round" stroke-linejoin="round"/>
                    <path class="wiggle-arrow" d="M920.247 566.375L920.247 496.063C920.247 493.669 920.719 491.298 921.635 489.087C922.551 486.875 923.894 484.865 925.587 483.173C927.279 481.48 929.289 480.137 931.501 479.221C933.712 478.305 936.083 477.833 938.477 477.833C940.87 477.833 943.241 478.305 945.453 479.221C947.664 480.137 949.674 481.48 951.367 483.173C953.059 484.865 954.402 486.875 955.318 489.087C956.234 491.298 956.706 493.669 956.706 496.063L956.706 542.938C956.706 547.772 958.626 552.409 962.045 555.827C965.464 559.246 970.1 561.167 974.935 561.167C979.77 561.167 984.406 559.246 987.825 555.827C991.243 552.409 993.164 547.772 993.164 542.938L993.164 480.438M920.247 566.375L902.018 548.146M920.247 566.375L938.477 548.146" stroke="white" stroke-width="7.78632" stroke-linecap="round" stroke-linejoin="round"/>
                    <path class="wiggle-arrow" d="M920.247 774.375L920.247 704.063C920.247 701.669 920.719 699.298 921.635 697.087C922.551 694.875 923.894 692.865 925.587 691.173C927.279 689.48 929.289 688.137 931.501 687.221C933.712 686.305 936.083 685.833 938.477 685.833C940.87 685.833 943.241 686.305 945.453 687.221C947.664 688.137 949.674 689.48 951.367 691.173C953.059 692.865 954.402 694.875 955.318 697.087C956.234 699.298 956.706 701.669 956.706 704.063L956.706 750.938C956.706 755.772 958.626 760.409 962.045 763.827C965.464 767.246 970.1 769.167 974.935 769.167C979.77 769.167 984.406 767.246 987.825 763.827C991.243 760.409 993.164 755.772 993.164 750.938L993.164 688.438M920.247 774.375L902.018 756.146M920.247 774.375L938.477 756.146" stroke="white" stroke-width="7.78632" stroke-linecap="round" stroke-linejoin="round"/>
                    <path class="wiggle-arrow" d="M920.247 982.375L920.247 912.063C920.247 909.669 920.719 907.298 921.635 905.087C922.551 902.875 923.894 900.865 925.587 899.173C927.279 897.48 929.289 896.137 931.501 895.221C933.712 894.305 936.083 893.833 938.477 893.833C940.87 893.833 943.241 894.305 945.453 895.221C947.664 896.137 949.674 897.48 951.367 899.173C953.059 900.865 954.402 902.875 955.318 905.087C956.234 907.298 956.706 909.669 956.706 912.063L956.706 958.938C956.706 963.772 958.626 968.409 962.045 971.827C965.464 975.246 970.1 977.167 974.935 977.167C979.77 977.167 984.406 975.246 987.825 971.827C991.243 968.409 993.164 963.772 993.164 958.938L993.164 896.438M920.247 982.375L902.018 964.146M920.247 982.375L938.477 964.146" stroke="white" stroke-width="7.78632" stroke-linecap="round" stroke-linejoin="round"/>
                    <path class="wiggle-arrow" d="M920.247 1190.38L920.247 1120.06C920.247 1117.67 920.719 1115.3 921.635 1113.09C922.551 1110.87 923.894 1108.87 925.587 1107.17C927.279 1105.48 929.289 1104.14 931.501 1103.22C933.712 1102.3 936.083 1101.83 938.477 1101.83C940.87 1101.83 943.241 1102.3 945.453 1103.22C947.664 1104.14 949.674 1105.48 951.367 1107.17C953.059 1108.87 954.402 1110.87 955.318 1113.09C956.234 1115.3 956.706 1117.67 956.706 1120.06L956.706 1166.94C956.706 1171.77 958.626 1176.41 962.045 1179.83C965.464 1183.25 970.1 1185.17 974.935 1185.17C979.77 1185.17 984.406 1183.25 987.825 1179.83C991.243 1176.41 993.164 1171.77 993.164 1166.94L993.164 1104.44M920.247 1190.38L902.018 1172.15M920.247 1190.38L938.477 1172.15" stroke="white" stroke-width="7.78632" stroke-linecap="round" stroke-linejoin="round"/>
                    <path class="wiggle-arrow" d="M920.247 1398.38L920.247 1328.06C920.247 1325.67 920.719 1323.3 921.635 1321.09C922.551 1318.87 923.894 1316.87 925.587 1315.17C927.279 1313.48 929.289 1312.14 931.501 1311.22C933.712 1310.3 936.083 1309.83 938.477 1309.83C940.87 1309.83 943.241 1310.3 945.453 1311.22C947.664 1312.14 949.674 1313.48 951.367 1315.17C953.059 1316.87 954.402 1318.87 955.318 1321.09C956.234 1323.3 956.706 1325.67 956.706 1328.06L956.706 1374.94C956.706 1379.77 958.626 1384.41 962.045 1387.83C965.464 1391.25 970.1 1393.17 974.935 1393.17C979.77 1393.17 984.406 1391.25 987.825 1387.83C991.243 1384.41 993.164 1379.77 993.164 1374.94L993.164 1312.44M920.247 1398.38L902.018 1380.15M920.247 1398.38L938.477 1380.15" stroke="white" stroke-width="7.78632" stroke-linecap="round" stroke-linejoin="round"/>
                    <path class="wiggle-arrow" d="M920.247 1606.38L920.247 1536.06C920.247 1533.67 920.719 1531.3 921.635 1529.09C922.551 1526.87 923.894 1524.87 925.587 1523.17C927.279 1521.48 929.289 1520.14 931.501 1519.22C933.712 1518.3 936.083 1517.83 938.477 1517.83C940.87 1517.83 943.241 1518.3 945.453 1519.22C947.664 1520.14 949.674 1521.48 951.367 1523.17C953.059 1524.87 954.402 1526.87 955.318 1529.09C956.234 1531.3 956.706 1533.67 956.706 1536.06L956.706 1582.94C956.706 1587.77 958.626 1592.41 962.045 1595.83C965.464 1599.25 970.1 1601.17 974.935 1601.17C979.77 1601.17 984.406 1599.25 987.825 1595.83C991.243 1592.41 993.164 1587.77 993.164 1582.94L993.164 1520.44M920.247 1606.38L902.018 1588.15M920.247 1606.38L938.477 1588.15" stroke="white" stroke-width="7.78632" stroke-linecap="round" stroke-linejoin="round"/>
                    <path class="wiggle-arrow" d="M920.247 1814.38L920.247 1744.06C920.247 1741.67 920.719 1739.3 921.635 1737.09C922.551 1734.87 923.894 1732.87 925.587 1731.17C927.279 1729.48 929.289 1728.14 931.501 1727.22C933.712 1726.3 936.083 1725.83 938.477 1725.83C940.87 1725.83 943.241 1726.3 945.453 1727.22C947.664 1728.14 949.674 1729.48 951.367 1731.17C953.059 1732.87 954.402 1734.87 955.318 1737.09C956.234 1739.3 956.706 1741.67 956.706 1744.06L956.706 1790.94C956.706 1795.77 958.626 1800.41 962.045 1803.83C965.464 1807.25 970.1 1809.17 974.935 1809.17C979.77 1809.17 984.406 1807.25 987.825 1803.83C991.243 1800.41 993.164 1795.77 993.164 1790.94L993.164 1728.44M920.247 1814.38L902.018 1796.15M920.247 1814.38L938.477 1796.15" stroke="white" stroke-width="7.78632" stroke-linecap="round" stroke-linejoin="round"/>
                    <path class="wiggle-arrow" d="M920.247 2022.38L920.247 1952.06C920.247 1949.67 920.719 1947.3 921.635 1945.09C922.551 1942.87 923.894 1940.87 925.587 1939.17C927.279 1937.48 929.289 1936.14 931.501 1935.22C933.712 1934.3 936.083 1933.83 938.477 1933.83C940.87 1933.83 943.241 1934.3 945.453 1935.22C947.664 1936.14 949.674 1937.48 951.367 1939.17C953.059 1940.87 954.402 1942.87 955.318 1945.09C956.234 1947.3 956.706 1949.67 956.706 1952.06L956.706 1998.94C956.706 2003.77 958.626 2008.41 962.045 2011.83C965.464 2015.25 970.1 2017.17 974.935 2017.17C979.77 2017.17 984.406 2015.25 987.825 2011.83C991.243 2008.41 993.164 2003.77 993.164 1998.94L993.164 1936.44M920.247 2022.38L902.018 2004.15M920.247 2022.38L938.477 2004.15" stroke="white" stroke-width="7.78632" stroke-linecap="round" stroke-linejoin="round"/>
                    <path class="wiggle-arrow" d="M920.247 2230.38L920.247 2160.06C920.247 2157.67 920.719 2155.3 921.635 2153.09C922.551 2150.87 923.894 2148.87 925.587 2147.17C927.279 2145.48 929.289 2144.14 931.501 2143.22C933.712 2142.3 936.083 2141.83 938.477 2141.83C940.87 2141.83 943.241 2142.3 945.453 2143.22C947.664 2144.14 949.674 2145.48 951.367 2147.17C953.059 2148.87 954.402 2150.87 955.318 2153.09C956.234 2155.3 956.706 2157.67 956.706 2160.06L956.706 2206.94C956.706 2211.77 958.626 2216.41 962.045 2219.83C965.464 2223.25 970.1 2225.17 974.935 2225.17C979.77 2225.17 984.406 2223.25 987.825 2219.83C991.243 2216.41 993.164 2211.77 993.164 2206.94L993.164 2144.44M920.247 2230.38L902.018 2212.15M920.247 2230.38L938.477 2212.15" stroke="white" stroke-width="7.78632" stroke-linecap="round" stroke-linejoin="round"/>
                    <path class="wiggle-arrow" d="M1128.25 358.375L1128.25 288.063C1128.25 285.669 1128.72 283.298 1129.64 281.087C1130.55 278.875 1131.89 276.865 1133.59 275.173C1135.28 273.48 1137.29 272.137 1139.5 271.221C1141.71 270.305 1144.08 269.833 1146.48 269.833C1148.87 269.833 1151.24 270.305 1153.45 271.221C1155.66 272.137 1157.67 273.48 1159.37 275.173C1161.06 276.865 1162.4 278.875 1163.32 281.087C1164.23 283.298 1164.71 285.669 1164.71 288.063L1164.71 334.938C1164.71 339.772 1166.63 344.409 1170.04 347.828C1173.46 351.246 1178.1 353.167 1182.93 353.167C1187.77 353.167 1192.41 351.246 1195.82 347.828C1199.24 344.409 1201.16 339.772 1201.16 334.938L1201.16 272.438M1128.25 358.375L1110.02 340.146M1128.25 358.375L1146.48 340.146" stroke="white" stroke-width="7.78632" stroke-linecap="round" stroke-linejoin="round"/>
                    <path class="wiggle-arrow" d="M1128.25 151.375L1128.25 81.0626C1128.25 78.6687 1128.72 76.2983 1129.64 74.0866C1130.55 71.875 1131.89 69.8654 1133.59 68.1727C1135.28 66.4799 1137.29 65.1372 1139.5 64.2211C1141.71 63.305 1144.08 62.8335 1146.48 62.8335C1148.87 62.8335 1151.24 63.305 1153.45 64.2211C1155.66 65.1372 1157.67 66.4799 1159.37 68.1727C1161.06 69.8654 1162.4 71.875 1163.32 74.0866C1164.23 76.2983 1164.71 78.6687 1164.71 81.0626L1164.71 127.938C1164.71 132.772 1166.63 137.409 1170.04 140.828C1173.46 144.246 1178.1 146.167 1182.93 146.167C1187.77 146.167 1192.41 144.246 1195.82 140.828C1199.24 137.409 1201.16 132.772 1201.16 127.938L1201.16 65.4376M1128.25 151.375L1110.02 133.146M1128.25 151.375L1146.48 133.146" stroke="white" stroke-width="7.78632" stroke-linecap="round" stroke-linejoin="round"/>
                    <path class="wiggle-arrow" d="M1128.25 566.375L1128.25 496.063C1128.25 493.669 1128.72 491.298 1129.64 489.087C1130.55 486.875 1131.89 484.865 1133.59 483.173C1135.28 481.48 1137.29 480.137 1139.5 479.221C1141.71 478.305 1144.08 477.833 1146.48 477.833C1148.87 477.833 1151.24 478.305 1153.45 479.221C1155.66 480.137 1157.67 481.48 1159.37 483.173C1161.06 484.865 1162.4 486.875 1163.32 489.087C1164.23 491.298 1164.71 493.669 1164.71 496.063L1164.71 542.938C1164.71 547.772 1166.63 552.409 1170.04 555.827C1173.46 559.246 1178.1 561.167 1182.93 561.167C1187.77 561.167 1192.41 559.246 1195.82 555.827C1199.24 552.409 1201.16 547.772 1201.16 542.938L1201.16 480.438M1128.25 566.375L1110.02 548.146M1128.25 566.375L1146.48 548.146" stroke="white" stroke-width="7.78632" stroke-linecap="round" stroke-linejoin="round"/>
                    <path class="wiggle-arrow" d="M1128.25 774.375L1128.25 704.063C1128.25 701.669 1128.72 699.298 1129.64 697.087C1130.55 694.875 1131.89 692.865 1133.59 691.173C1135.28 689.48 1137.29 688.137 1139.5 687.221C1141.71 686.305 1144.08 685.833 1146.48 685.833C1148.87 685.833 1151.24 686.305 1153.45 687.221C1155.66 688.137 1157.67 689.48 1159.37 691.173C1161.06 692.865 1162.4 694.875 1163.32 697.087C1164.23 699.298 1164.71 701.669 1164.71 704.063L1164.71 750.938C1164.71 755.772 1166.63 760.409 1170.04 763.827C1173.46 767.246 1178.1 769.167 1182.93 769.167C1187.77 769.167 1192.41 767.246 1195.82 763.827C1199.24 760.409 1201.16 755.772 1201.16 750.938L1201.16 688.438M1128.25 774.375L1110.02 756.146M1128.25 774.375L1146.48 756.146" stroke="white" stroke-width="7.78632" stroke-linecap="round" stroke-linejoin="round"/>
                    <path class="wiggle-arrow" d="M1128.25 982.375L1128.25 912.063C1128.25 909.669 1128.72 907.298 1129.64 905.087C1130.55 902.875 1131.89 900.865 1133.59 899.173C1135.28 897.48 1137.29 896.137 1139.5 895.221C1141.71 894.305 1144.08 893.833 1146.48 893.833C1148.87 893.833 1151.24 894.305 1153.45 895.221C1155.66 896.137 1157.67 897.48 1159.37 899.173C1161.06 900.865 1162.4 902.875 1163.32 905.087C1164.23 907.298 1164.71 909.669 1164.71 912.063L1164.71 958.938C1164.71 963.772 1166.63 968.409 1170.04 971.827C1173.46 975.246 1178.1 977.167 1182.93 977.167C1187.77 977.167 1192.41 975.246 1195.82 971.827C1199.24 968.409 1201.16 963.772 1201.16 958.938L1201.16 896.438M1128.25 982.375L1110.02 964.146M1128.25 982.375L1146.48 964.146" stroke="white" stroke-width="7.78632" stroke-linecap="round" stroke-linejoin="round"/>
                    <path class="wiggle-arrow" d="M1128.25 1190.38L1128.25 1120.06C1128.25 1117.67 1128.72 1115.3 1129.64 1113.09C1130.55 1110.87 1131.89 1108.87 1133.59 1107.17C1135.28 1105.48 1137.29 1104.14 1139.5 1103.22C1141.71 1102.3 1144.08 1101.83 1146.48 1101.83C1148.87 1101.83 1151.24 1102.3 1153.45 1103.22C1155.66 1104.14 1157.67 1105.48 1159.37 1107.17C1161.06 1108.87 1162.4 1110.87 1163.32 1113.09C1164.23 1115.3 1164.71 1117.67 1164.71 1120.06L1164.71 1166.94C1164.71 1171.77 1166.63 1176.41 1170.04 1179.83C1173.46 1183.25 1178.1 1185.17 1182.93 1185.17C1187.77 1185.17 1192.41 1183.25 1195.82 1179.83C1199.24 1176.41 1201.16 1171.77 1201.16 1166.94L1201.16 1104.44M1128.25 1190.38L1110.02 1172.15M1128.25 1190.38L1146.48 1172.15" stroke="white" stroke-width="7.78632" stroke-linecap="round" stroke-linejoin="round"/>
                    <path class="wiggle-arrow" d="M1128.25 1398.38L1128.25 1328.06C1128.25 1325.67 1128.72 1323.3 1129.64 1321.09C1130.55 1318.87 1131.89 1316.87 1133.59 1315.17C1135.28 1313.48 1137.29 1312.14 1139.5 1311.22C1141.71 1310.3 1144.08 1309.83 1146.48 1309.83C1148.87 1309.83 1151.24 1310.3 1153.45 1311.22C1155.66 1312.14 1157.67 1313.48 1159.37 1315.17C1161.06 1316.87 1162.4 1318.87 1163.32 1321.09C1164.23 1323.3 1164.71 1325.67 1164.71 1328.06L1164.71 1374.94C1164.71 1379.77 1166.63 1384.41 1170.04 1387.83C1173.46 1391.25 1178.1 1393.17 1182.93 1393.17C1187.77 1393.17 1192.41 1391.25 1195.82 1387.83C1199.24 1384.41 1201.16 1379.77 1201.16 1374.94L1201.16 1312.44M1128.25 1398.38L1110.02 1380.15M1128.25 1398.38L1146.48 1380.15" stroke="white" stroke-width="7.78632" stroke-linecap="round" stroke-linejoin="round"/>
                    <path class="wiggle-arrow" d="M1128.25 1606.38L1128.25 1536.06C1128.25 1533.67 1128.72 1531.3 1129.64 1529.09C1130.55 1526.87 1131.89 1524.87 1133.59 1523.17C1135.28 1521.48 1137.29 1520.14 1139.5 1519.22C1141.71 1518.3 1144.08 1517.83 1146.48 1517.83C1148.87 1517.83 1151.24 1518.3 1153.45 1519.22C1155.66 1520.14 1157.67 1521.48 1159.37 1523.17C1161.06 1524.87 1162.4 1526.87 1163.32 1529.09C1164.23 1531.3 1164.71 1533.67 1164.71 1536.06L1164.71 1582.94C1164.71 1587.77 1166.63 1592.41 1170.04 1595.83C1173.46 1599.25 1178.1 1601.17 1182.93 1601.17C1187.77 1601.17 1192.41 1599.25 1195.82 1595.83C1199.24 1592.41 1201.16 1587.77 1201.16 1582.94L1201.16 1520.44M1128.25 1606.38L1110.02 1588.15M1128.25 1606.38L1146.48 1588.15" stroke="white" stroke-width="7.78632" stroke-linecap="round" stroke-linejoin="round"/>
                    <path class="wiggle-arrow" d="M1128.25 1814.38L1128.25 1744.06C1128.25 1741.67 1128.72 1739.3 1129.64 1737.09C1130.55 1734.87 1131.89 1732.87 1133.59 1731.17C1135.28 1729.48 1137.29 1728.14 1139.5 1727.22C1141.71 1726.3 1144.08 1725.83 1146.48 1725.83C1148.87 1725.83 1151.24 1726.3 1153.45 1727.22C1155.66 1728.14 1157.67 1729.48 1159.37 1731.17C1161.06 1732.87 1162.4 1734.87 1163.32 1737.09C1164.23 1739.3 1164.71 1741.67 1164.71 1744.06L1164.71 1790.94C1164.71 1795.77 1166.63 1800.41 1170.04 1803.83C1173.46 1807.25 1178.1 1809.17 1182.93 1809.17C1187.77 1809.17 1192.41 1807.25 1195.82 1803.83C1199.24 1800.41 1201.16 1795.77 1201.16 1790.94L1201.16 1728.44M1128.25 1814.38L1110.02 1796.15M1128.25 1814.38L1146.48 1796.15" stroke="white" stroke-width="7.78632" stroke-linecap="round" stroke-linejoin="round"/>
                    <path class="wiggle-arrow" d="M1128.25 2022.38L1128.25 1952.06C1128.25 1949.67 1128.72 1947.3 1129.64 1945.09C1130.55 1942.87 1131.89 1940.87 1133.59 1939.17C1135.28 1937.48 1137.29 1936.14 1139.5 1935.22C1141.71 1934.3 1144.08 1933.83 1146.48 1933.83C1148.87 1933.83 1151.24 1934.3 1153.45 1935.22C1155.66 1936.14 1157.67 1937.48 1159.37 1939.17C1161.06 1940.87 1162.4 1942.87 1163.32 1945.09C1164.23 1947.3 1164.71 1949.67 1164.71 1952.06L1164.71 1998.94C1164.71 2003.77 1166.63 2008.41 1170.04 2011.83C1173.46 2015.25 1178.1 2017.17 1182.93 2017.17C1187.77 2017.17 1192.41 2015.25 1195.82 2011.83C1199.24 2008.41 1201.16 2003.77 1201.16 1998.94L1201.16 1936.44M1128.25 2022.38L1110.02 2004.15M1128.25 2022.38L1146.48 2004.15" stroke="white" stroke-width="7.78632" stroke-linecap="round" stroke-linejoin="round"/>
                    <path class="wiggle-arrow" d="M1128.25 2230.38L1128.25 2160.06C1128.25 2157.67 1128.72 2155.3 1129.64 2153.09C1130.55 2150.87 1131.89 2148.87 1133.59 2147.17C1135.28 2145.48 1137.29 2144.14 1139.5 2143.22C1141.71 2142.3 1144.08 2141.83 1146.48 2141.83C1148.87 2141.83 1151.24 2142.3 1153.45 2143.22C1155.66 2144.14 1157.67 2145.48 1159.37 2147.17C1161.06 2148.87 1162.4 2150.87 1163.32 2153.09C1164.23 2155.3 1164.71 2157.67 1164.71 2160.06L1164.71 2206.94C1164.71 2211.77 1166.63 2216.41 1170.04 2219.83C1173.46 2223.25 1178.1 2225.17 1182.93 2225.17C1187.77 2225.17 1192.41 2223.25 1195.82 2219.83C1199.24 2216.41 1201.16 2211.77 1201.16 2206.94L1201.16 2144.44M1128.25 2230.38L1110.02 2212.15M1128.25 2230.38L1146.48 2212.15" stroke="white" stroke-width="7.78632" stroke-linecap="round" stroke-linejoin="round"/>
                </svg>